<svg xmlns="http://www.w3.org/2000/svg" width="30" height="30" viewBox="0 0 30 30">
  <g id="Path_2" data-name="Path 2" fill="none">
    <path d="M10,0H20A10,10,0,0,1,30,10V20A10,10,0,0,1,20,30H10A10,10,0,0,1,0,20V10A10,10,0,0,1,10,0Z" stroke="none"/>
    <path d="M 10 3 C 6.140190124511719 3 3 6.140190124511719 3 10 L 3 20 C 3 23.85980987548828 6.140190124511719 27 10 27 L 20 27 C 23.85980987548828 27 27 23.85980987548828 27 20 L 27 10 C 27 6.140190124511719 23.85980987548828 3 20 3 L 10 3 M 10 0 L 20 0 C 25.52285003662109 0 30 4.477149963378906 30 10 L 30 20 C 30 25.52285003662109 25.52285003662109 30 20 30 L 10 30 C 4.477149963378906 30 0 25.52285003662109 0 20 L 0 10 C 0 4.477149963378906 4.477149963378906 0 10 0 Z" stroke="none" fill="#000"/>
  </g>
  <path id="Path_1" data-name="Path 1" d="M12,4.5v15M19.5,12H4.5" transform="translate(3.5 3.5)" fill="none" stroke="#000" stroke-linecap="round" stroke-linejoin="round" stroke-width="3"/>
</svg>
